<?xml version="1.0" encoding="utf-8"?>
<!-- Generator: Adobe Illustrator 23.0.3, SVG Export Plug-In . SVG Version: 6.00 Build 0)  -->
<svg version="1.1" id="Capa_1" xmlns="http://www.w3.org/2000/svg" xmlns:xlink="http://www.w3.org/1999/xlink" x="0px" y="0px"
	 viewBox="0 0 202.8 366.3" style="enable-background:new 0 0 202.8 366.3;" xml:space="preserve">
<style type="text/css">
	.st0{fill:#FFFFFF;}
</style>
<g>
	<path class="st0" d="M90.9,23.3c0-5.2,2.3-9.3,6-12.3l1.5,1.3c-3.5,3.1-5.1,6.5-5.1,11c0,4.5,1.6,7.9,5.1,11l-1.5,1.3
		C93.2,32.6,90.9,28.5,90.9,23.3z"/>
	<path class="st0" d="M105,34.3c3.5-3.1,5.1-6.5,5.1-11c0-4.5-1.6-7.9-5.1-11l1.5-1.3c3.7,3,6,7.1,6,12.3c0,5.2-2.3,9.3-6,12.3
		L105,34.3z"/>
	<path class="st0" d="M74.7,55.7c0-5.2,2.3-9.3,6-12.3l1.5,1.3c-3.5,3.1-5.1,6.5-5.1,11c0,4.5,1.6,7.9,5.1,11L80.6,68
		C76.9,65.1,74.7,60.9,74.7,55.7z"/>
	<path class="st0" d="M87.1,65h13v2.2h-13V65z"/>
	<path class="st0" d="M103.3,65h13v2.2h-13V65z"/>
	<path class="st0" d="M121.3,66.8c3.5-3.1,5.1-6.5,5.1-11c0-4.5-1.6-7.9-5.1-11l1.5-1.3c3.7,3,6,7.1,6,12.3c0,5.2-2.3,9.3-6,12.3
		L121.3,66.8z"/>
	<path class="st0" d="M58.4,88.2c0-5.2,2.3-9.3,6-12.3l1.5,1.3c-3.5,3.1-5.1,6.5-5.1,11c0,4.5,1.6,7.9,5.1,11l-1.5,1.3
		C60.7,97.6,58.4,93.4,58.4,88.2z"/>
	<path class="st0" d="M70.8,97.5h13v2.2h-13V97.5z"/>
	<path class="st0" d="M87.1,97.5h13v2.2h-13V97.5z"/>
	<path class="st0" d="M103.3,97.5h13v2.2h-13V97.5z"/>
	<path class="st0" d="M119.6,97.5h13v2.2h-13V97.5z"/>
	<path class="st0" d="M137.5,99.2c3.5-3.1,5.1-6.5,5.1-11c0-4.5-1.6-7.9-5.1-11l1.5-1.3c3.7,3,6,7.1,6,12.3c0,5.2-2.3,9.3-6,12.3
		L137.5,99.2z"/>
	<path class="st0" d="M42.2,120.7c0-5.2,2.3-9.3,6-12.3l1.5,1.3c-3.5,3.1-5.1,6.5-5.1,11c0,4.5,1.6,7.9,5.1,11l-1.5,1.3
		C44.4,130,42.2,125.9,42.2,120.7z"/>
	<path class="st0" d="M54.6,130h13v2.2h-13V130z"/>
	<path class="st0" d="M70.8,130h13v2.2h-13V130z"/>
	<path class="st0" d="M87.1,130h13v2.2h-13V130z"/>
	<path class="st0" d="M103.3,130h13v2.2h-13V130z"/>
	<path class="st0" d="M119.6,130h13v2.2h-13V130z"/>
	<path class="st0" d="M135.8,130h13v2.2h-13V130z"/>
	<path class="st0" d="M153.8,131.7c3.5-3.1,5.1-6.5,5.1-11c0-4.5-1.6-7.9-5.1-11l1.5-1.3c3.7,3,6,7.1,6,12.3c0,5.2-2.3,9.3-6,12.3
		L153.8,131.7z"/>
	<path class="st0" d="M25.9,153.2c0-5.2,2.3-9.3,6-12.3l1.5,1.3c-3.5,3.1-5.1,6.5-5.1,11c0,4.5,1.6,7.9,5.1,11l-1.5,1.3
		C28.2,162.5,25.9,158.4,25.9,153.2z"/>
	<path class="st0" d="M38.4,162.5h13v2.2h-13V162.5z"/>
	<path class="st0" d="M54.6,162.5h13v2.2h-13V162.5z"/>
	<path class="st0" d="M70.8,162.5h13v2.2h-13V162.5z"/>
	<path class="st0" d="M87.1,162.5h13v2.2h-13V162.5z"/>
	<path class="st0" d="M103.3,162.5h13v2.2h-13V162.5z"/>
	<path class="st0" d="M119.6,162.5h13v2.2h-13V162.5z"/>
	<path class="st0" d="M135.8,162.5h13v2.2h-13V162.5z"/>
	<path class="st0" d="M152,162.5h13v2.2h-13V162.5z"/>
	<path class="st0" d="M170,164.2c3.5-3.1,5.1-6.5,5.1-11c0-4.5-1.6-7.9-5.1-11l1.5-1.3c3.7,3,6,7.1,6,12.3c0,5.2-2.3,9.3-6,12.3
		L170,164.2z"/>
	<path class="st0" d="M9.7,185.7c0-5.2,2.3-9.3,6-12.3l1.5,1.3c-3.5,3.1-5.1,6.5-5.1,11c0,4.5,1.6,7.9,5.1,11l-1.5,1.3
		C12,195,9.7,190.9,9.7,185.7z"/>
	<path class="st0" d="M22.1,195h13v2.2h-13V195z"/>
	<path class="st0" d="M38.4,195h13v2.2h-13V195z"/>
	<path class="st0" d="M54.6,195h13v2.2h-13V195z"/>
	<path class="st0" d="M70.8,195h13v2.2h-13V195z"/>
	<path class="st0" d="M87.1,195h13v2.2h-13V195z"/>
	<path class="st0" d="M103.3,195h13v2.2h-13V195z"/>
	<path class="st0" d="M119.6,195h13v2.2h-13V195z"/>
	<path class="st0" d="M135.8,195h13v2.2h-13V195z"/>
	<path class="st0" d="M152.1,195h13v2.2h-13V195z"/>
	<path class="st0" d="M168.3,195h13v2.2h-13V195z"/>
	<path class="st0" d="M186.2,196.7c3.5-3.1,5.1-6.5,5.1-11c0-4.5-1.6-7.9-5.1-11l1.5-1.3c3.7,3,6,7.1,6,12.3c0,5.2-2.3,9.3-6,12.3
		L186.2,196.7z"/>
	<path class="st0" d="M23,206.5h2.3l8.9,23.5h-2.3L23,206.5z"/>
	<path class="st0" d="M48.1,206.5h2.3L41.6,230h-2.3L48.1,206.5z"/>
	<path class="st0" d="M55.5,206.5h2.3l8.9,23.5h-2.3L55.5,206.5z"/>
	<path class="st0" d="M80.6,206.5H83L74.1,230h-2.3L80.6,206.5z"/>
	<path class="st0" d="M88,206.5h2.3l8.9,23.5h-2.3L88,206.5z"/>
	<path class="st0" d="M113.1,206.5h2.3l-8.9,23.5h-2.3L113.1,206.5z"/>
	<path class="st0" d="M120.4,206.5h2.3l8.9,23.5h-2.3L120.4,206.5z"/>
	<path class="st0" d="M145.6,206.5h2.3L139,230h-2.3L145.6,206.5z"/>
	<path class="st0" d="M152.9,206.5h2.3l8.9,23.5h-2.3L152.9,206.5z"/>
	<path class="st0" d="M178.1,206.5h2.3l-8.9,23.5h-2.3L178.1,206.5z"/>
	<path class="st0" d="M39.2,238.9h2.3l8.9,23.5h-2.3L39.2,238.9z"/>
	<path class="st0" d="M64.4,238.9h2.3l-8.9,23.5h-2.3L64.4,238.9z"/>
	<path class="st0" d="M71.7,238.9h2.3l8.9,23.5h-2.3L71.7,238.9z"/>
	<path class="st0" d="M96.8,238.9h2.3l-8.9,23.5H88L96.8,238.9z"/>
	<path class="st0" d="M104.2,238.9h2.3l8.9,23.5h-2.3L104.2,238.9z"/>
	<path class="st0" d="M129.3,238.9h2.3l-8.9,23.5h-2.3L129.3,238.9z"/>
	<path class="st0" d="M136.7,238.9h2.3l8.9,23.5h-2.3L136.7,238.9z"/>
	<path class="st0" d="M161.8,238.9h2.3l-8.9,23.5h-2.3L161.8,238.9z"/>
	<path class="st0" d="M55.5,271.4h2.3l8.9,23.5h-2.3L55.5,271.4z"/>
	<path class="st0" d="M80.6,271.4H83L74.1,295h-2.3L80.6,271.4z"/>
	<path class="st0" d="M88,271.4h2.3l8.9,23.5h-2.3L88,271.4z"/>
	<path class="st0" d="M113.1,271.4h2.3l-8.9,23.5h-2.3L113.1,271.4z"/>
	<path class="st0" d="M120.4,271.4h2.3l8.9,23.5h-2.3L120.4,271.4z"/>
	<path class="st0" d="M145.6,271.4h2.3L139,295h-2.3L145.6,271.4z"/>
	<path class="st0" d="M71.7,303.9h2.3l8.9,23.5h-2.3L71.7,303.9z"/>
	<path class="st0" d="M96.8,303.9h2.3l-8.9,23.5H88L96.8,303.9z"/>
	<path class="st0" d="M104.2,303.9h2.3l8.9,23.5h-2.3L104.2,303.9z"/>
	<path class="st0" d="M129.3,303.9h2.3l-8.9,23.5h-2.3L129.3,303.9z"/>
	<path class="st0" d="M88,336.4h2.3l8.9,23.5h-2.3L88,336.4z"/>
	<path class="st0" d="M113.1,336.4h2.3l-8.9,23.5h-2.3L113.1,336.4z"/>
</g>
</svg>
